# MagicaVoxel @ Ephtracy

# group
o 

# material
mtllib base.mtl
usemtl palette

# normals
vn -1 0 0
vn 1 0 0
vn 0 0 1
vn 0 0 -1
vn 0 -1 0
vn 0 1 0

# texcoords
vt 0.880859 0.5
vt 0.962891 0.5

# verts
v -0.4 0 0.4
v -0.4 0 -0.4
v -0.4 0.4 0.4
v -0.4 0.4 -0.4
v -0.3 0.4 0.3
v -0.3 0.4 0.2
v -0.3 0.4 -0.2
v -0.3 0.4 -0.3
v -0.3 0.7 0.3
v -0.3 0.7 0.2
v -0.3 0.7 -0.2
v -0.3 0.7 -0.3
v -0.3 0.8 0.3
v -0.3 0.8 0.2
v -0.3 0.8 -0.2
v -0.3 0.8 -0.3
v -0.1 0.4 0.1
v -0.1 0.4 -0.1
v -0.1 0.6 0.1
v -0.1 0.6 -0.1
v 0.2 0 0.4
v 0.2 0 0.3
v 0.2 0.3 0.4
v 0.2 0.3 0.3
v 0.2 0.4 0.3
v 0.2 0.4 0.2
v 0.2 0.4 -0.2
v 0.2 0.4 -0.3
v 0.2 0.7 0.3
v 0.2 0.7 0.2
v 0.2 0.7 -0.2
v 0.2 0.7 -0.3
v 0.2 0.8 0.3
v 0.2 0.8 0.2
v 0.2 0.8 -0.2
v 0.2 0.8 -0.3
v -0.2 0 0.4
v -0.2 0 0.3
v -0.2 0.3 0.4
v -0.2 0.3 0.3
v -0.2 0.4 0.3
v -0.2 0.4 0.2
v -0.2 0.4 -0.2
v -0.2 0.4 -0.3
v -0.2 0.7 0.3
v -0.2 0.7 0.2
v -0.2 0.7 -0.2
v -0.2 0.7 -0.3
v -0.2 0.8 0.3
v -0.2 0.8 0.2
v -0.2 0.8 -0.2
v -0.2 0.8 -0.3
v 0.1 0.4 0.1
v 0.1 0.4 -0.1
v 0.1 0.6 0.1
v 0.1 0.6 -0.1
v 0.3 0.4 0.3
v 0.3 0.4 0.2
v 0.3 0.4 -0.2
v 0.3 0.4 -0.3
v 0.3 0.7 0.3
v 0.3 0.7 0.2
v 0.3 0.7 -0.2
v 0.3 0.7 -0.3
v 0.3 0.8 0.3
v 0.3 0.8 0.2
v 0.3 0.8 -0.2
v 0.3 0.8 -0.3
v 0.4 0 0.4
v 0.4 0 -0.4
v 0.4 0.4 0.4
v 0.4 0.4 -0.4
v -0.4 0 0.4
v -0.4 0.4 0.4
v -0.2 0 0.4
v -0.2 0.3 0.4
v 0.2 0 0.4
v 0.2 0.3 0.4
v 0.4 0 0.4
v 0.4 0.4 0.4
v -0.3 0.4 0.3
v -0.3 0.7 0.3
v -0.3 0.8 0.3
v -0.2 0 0.3
v -0.2 0.3 0.3
v -0.2 0.4 0.3
v -0.2 0.7 0.3
v -0.2 0.8 0.3
v 0.2 0 0.3
v 0.2 0.3 0.3
v 0.2 0.4 0.3
v 0.2 0.7 0.3
v 0.2 0.8 0.3
v 0.3 0.4 0.3
v 0.3 0.7 0.3
v 0.3 0.8 0.3
v -0.1 0.4 0.1
v -0.1 0.6 0.1
v 0.1 0.4 0.1
v 0.1 0.6 0.1
v -0.3 0.4 -0.2
v -0.3 0.7 -0.2
v -0.3 0.8 -0.2
v -0.2 0.4 -0.2
v -0.2 0.7 -0.2
v -0.2 0.8 -0.2
v 0.2 0.4 -0.2
v 0.2 0.7 -0.2
v 0.2 0.8 -0.2
v 0.3 0.4 -0.2
v 0.3 0.7 -0.2
v 0.3 0.8 -0.2
v -0.3 0.4 0.2
v -0.3 0.7 0.2
v -0.3 0.8 0.2
v -0.2 0.4 0.2
v -0.2 0.7 0.2
v -0.2 0.8 0.2
v 0.2 0.4 0.2
v 0.2 0.7 0.2
v 0.2 0.8 0.2
v 0.3 0.4 0.2
v 0.3 0.7 0.2
v 0.3 0.8 0.2
v -0.1 0.4 -0.1
v -0.1 0.6 -0.1
v 0.1 0.4 -0.1
v 0.1 0.6 -0.1
v -0.3 0.4 -0.3
v -0.3 0.7 -0.3
v -0.3 0.8 -0.3
v -0.2 0.4 -0.3
v -0.2 0.7 -0.3
v -0.2 0.8 -0.3
v 0.2 0.4 -0.3
v 0.2 0.7 -0.3
v 0.2 0.8 -0.3
v 0.3 0.4 -0.3
v 0.3 0.7 -0.3
v 0.3 0.8 -0.3
v -0.4 0 -0.4
v -0.4 0.4 -0.4
v 0.4 0 -0.4
v 0.4 0.4 -0.4
v -0.4 0 0.4
v -0.2 0 0.4
v 0.2 0 0.4
v 0.4 0 0.4
v -0.2 0 0.3
v 0.2 0 0.3
v -0.2 0 0.2
v 0.2 0 0.2
v -0.4 0 -0.4
v 0.4 0 -0.4
v -0.2 0.3 0.4
v 0.2 0.3 0.4
v -0.2 0.3 0.3
v 0.2 0.3 0.3
v -0.4 0.4 0.4
v 0.4 0.4 0.4
v -0.3 0.4 0.3
v -0.2 0.4 0.3
v 0.2 0.4 0.3
v 0.3 0.4 0.3
v -0.3 0.4 0.2
v -0.2 0.4 0.2
v 0.2 0.4 0.2
v 0.3 0.4 0.2
v -0.1 0.4 0.1
v 0.1 0.4 0.1
v -0.1 0.4 -0.1
v 0.1 0.4 -0.1
v -0.3 0.4 -0.2
v -0.2 0.4 -0.2
v 0.2 0.4 -0.2
v 0.3 0.4 -0.2
v -0.3 0.4 -0.3
v -0.2 0.4 -0.3
v 0.2 0.4 -0.3
v 0.3 0.4 -0.3
v -0.4 0.4 -0.4
v 0.4 0.4 -0.4
v -0.1 0.6 0.1
v 0.1 0.6 0.1
v -0.1 0.6 -0.1
v 0.1 0.6 -0.1
v -0.3 0.8 0.3
v -0.2 0.8 0.3
v 0.2 0.8 0.3
v 0.3 0.8 0.3
v -0.3 0.8 0.2
v -0.2 0.8 0.2
v 0.2 0.8 0.2
v 0.3 0.8 0.2
v -0.3 0.8 -0.2
v -0.2 0.8 -0.2
v 0.2 0.8 -0.2
v 0.3 0.8 -0.2
v -0.3 0.8 -0.3
v -0.2 0.8 -0.3
v 0.2 0.8 -0.3
v 0.3 0.8 -0.3

# faces
f 3/2/1 2/2/1 1/2/1
f 4/2/1 2/2/1 3/2/1
f 9/2/1 6/2/1 5/2/1
f 10/2/1 6/2/1 9/2/1
f 11/2/1 8/2/1 7/2/1
f 12/2/1 8/2/1 11/2/1
f 13/1/1 10/1/1 9/1/1
f 14/1/1 10/1/1 13/1/1
f 15/1/1 12/1/1 11/1/1
f 16/1/1 12/1/1 15/1/1
f 19/2/1 18/2/1 17/2/1
f 20/2/1 18/2/1 19/2/1
f 23/2/1 22/2/1 21/2/1
f 24/2/1 22/2/1 23/2/1
f 29/2/1 26/2/1 25/2/1
f 30/2/1 26/2/1 29/2/1
f 31/2/1 28/2/1 27/2/1
f 32/2/1 28/2/1 31/2/1
f 33/1/1 30/1/1 29/1/1
f 34/1/1 30/1/1 33/1/1
f 35/1/1 32/1/1 31/1/1
f 36/1/1 32/1/1 35/1/1
f 37/2/2 38/2/2 39/2/2
f 39/2/2 38/2/2 40/2/2
f 41/2/2 42/2/2 45/2/2
f 45/2/2 42/2/2 46/2/2
f 43/2/2 44/2/2 47/2/2
f 47/2/2 44/2/2 48/2/2
f 45/1/2 46/1/2 49/1/2
f 49/1/2 46/1/2 50/1/2
f 47/1/2 48/1/2 51/1/2
f 51/1/2 48/1/2 52/1/2
f 53/2/2 54/2/2 55/2/2
f 55/2/2 54/2/2 56/2/2
f 57/2/2 58/2/2 61/2/2
f 61/2/2 58/2/2 62/2/2
f 59/2/2 60/2/2 63/2/2
f 63/2/2 60/2/2 64/2/2
f 61/1/2 62/1/2 65/1/2
f 65/1/2 62/1/2 66/1/2
f 63/1/2 64/1/2 67/1/2
f 67/1/2 64/1/2 68/1/2
f 69/2/2 70/2/2 71/2/2
f 71/2/2 70/2/2 72/2/2
f 75/2/3 74/2/3 73/2/3
f 76/2/3 74/2/3 75/2/3
f 78/2/3 74/2/3 76/2/3
f 79/2/3 78/2/3 77/2/3
f 80/2/3 74/2/3 78/2/3
f 80/2/3 78/2/3 79/2/3
f 86/2/3 82/2/3 81/2/3
f 87/1/3 83/1/3 82/1/3
f 87/2/3 82/2/3 86/2/3
f 88/1/3 83/1/3 87/1/3
f 89/1/3 85/1/3 84/1/3
f 90/1/3 85/1/3 89/1/3
f 94/2/3 92/2/3 91/2/3
f 95/1/3 93/1/3 92/1/3
f 95/2/3 92/2/3 94/2/3
f 96/1/3 93/1/3 95/1/3
f 99/2/3 98/2/3 97/2/3
f 100/2/3 98/2/3 99/2/3
f 104/2/3 102/2/3 101/2/3
f 105/1/3 103/1/3 102/1/3
f 105/2/3 102/2/3 104/2/3
f 106/1/3 103/1/3 105/1/3
f 110/2/3 108/2/3 107/2/3
f 111/1/3 109/1/3 108/1/3
f 111/2/3 108/2/3 110/2/3
f 112/1/3 109/1/3 111/1/3
f 113/2/4 114/2/4 116/2/4
f 114/1/4 115/1/4 117/1/4
f 116/2/4 114/2/4 117/2/4
f 117/1/4 115/1/4 118/1/4
f 119/2/4 120/2/4 122/2/4
f 120/1/4 121/1/4 123/1/4
f 122/2/4 120/2/4 123/2/4
f 123/1/4 121/1/4 124/1/4
f 125/2/4 126/2/4 127/2/4
f 127/2/4 126/2/4 128/2/4
f 129/2/4 130/2/4 132/2/4
f 130/1/4 131/1/4 133/1/4
f 132/2/4 130/2/4 133/2/4
f 133/1/4 131/1/4 134/1/4
f 135/2/4 136/2/4 138/2/4
f 136/1/4 137/1/4 139/1/4
f 138/2/4 136/2/4 139/2/4
f 139/1/4 137/1/4 140/1/4
f 141/2/4 142/2/4 143/2/4
f 143/2/4 142/2/4 144/2/4
f 149/2/5 146/2/5 145/2/5
f 150/2/5 148/2/5 147/2/5
f 151/2/5 149/2/5 145/2/5
f 151/1/5 150/1/5 149/1/5
f 152/2/5 148/2/5 150/2/5
f 152/1/5 150/1/5 151/1/5
f 153/2/5 151/2/5 145/2/5
f 153/2/5 152/2/5 151/2/5
f 154/2/5 148/2/5 152/2/5
f 154/2/5 152/2/5 153/2/5
f 157/2/5 156/2/5 155/2/5
f 158/2/5 156/2/5 157/2/5
f 159/2/6 160/2/6 161/2/6
f 161/2/6 160/2/6 162/2/6
f 162/2/6 160/2/6 163/2/6
f 163/2/6 160/2/6 164/2/6
f 159/2/6 161/2/6 165/2/6
f 162/2/6 163/2/6 166/2/6
f 166/2/6 163/2/6 167/2/6
f 164/2/6 160/2/6 168/2/6
f 166/2/6 167/2/6 169/2/6
f 167/2/6 168/2/6 169/2/6
f 165/2/6 166/2/6 169/2/6
f 169/2/6 168/2/6 170/2/6
f 165/2/6 169/2/6 171/2/6
f 170/2/6 168/2/6 172/2/6
f 159/2/6 165/2/6 173/2/6
f 171/2/6 172/2/6 173/2/6
f 165/2/6 171/2/6 173/2/6
f 173/2/6 172/2/6 174/2/6
f 172/2/6 168/2/6 175/2/6
f 174/2/6 172/2/6 175/2/6
f 168/2/6 160/2/6 176/2/6
f 175/2/6 168/2/6 176/2/6
f 159/2/6 173/2/6 177/2/6
f 174/2/6 175/2/6 178/2/6
f 178/2/6 175/2/6 179/2/6
f 176/2/6 160/2/6 180/2/6
f 159/2/6 177/2/6 181/2/6
f 179/2/6 180/2/6 181/2/6
f 178/2/6 179/2/6 181/2/6
f 177/2/6 178/2/6 181/2/6
f 180/2/6 160/2/6 182/2/6
f 181/2/6 180/2/6 182/2/6
f 183/2/6 184/2/6 185/2/6
f 185/2/6 184/2/6 186/2/6
f 187/1/6 188/1/6 191/1/6
f 191/1/6 188/1/6 192/1/6
f 189/1/6 190/1/6 193/1/6
f 193/1/6 190/1/6 194/1/6
f 195/1/6 196/1/6 199/1/6
f 199/1/6 196/1/6 200/1/6
f 197/1/6 198/1/6 201/1/6
f 201/1/6 198/1/6 202/1/6
