# MagicaVoxel @ Ephtracy

# group
o 

# material
mtllib factory.mtl
usemtl palette

# normals
vn -1 0 0
vn 1 0 0
vn 0 0 1
vn 0 0 -1
vn 0 -1 0
vn 0 1 0

# texcoords
vt 0.970703 0.5
vt 0.974609 0.5
vt 0.978516 0.5

# verts
v -0.3 0 0.3
v -0.3 0 0.2
v -0.3 0 0.1
v -0.3 0 0
v -0.3 0 -0.1
v -0.3 0 -0.2
v -0.3 0 -0.3
v -0.3 0 -0.4
v -0.3 0.1 0.2
v -0.3 0.1 0.1
v -0.3 0.1 0
v -0.3 0.1 -0.1
v -0.3 0.1 -0.2
v -0.3 0.1 -0.3
v -0.3 0.2 0.2
v -0.3 0.2 0.1
v -0.3 0.2 0
v -0.3 0.2 -0.1
v -0.3 0.2 -0.2
v -0.3 0.2 -0.3
v -0.3 0.3 0.2
v -0.3 0.3 0.1
v -0.3 0.3 0
v -0.3 0.3 -0.1
v -0.3 0.3 -0.2
v -0.3 0.3 -0.3
v -0.3 0.4 0.1
v -0.3 0.4 0
v -0.3 0.4 -0.1
v -0.3 0.4 -0.2
v -0.3 0.5 0.3
v -0.3 0.5 -0.4
v -0.1 0.5 0.1
v -0.1 0.5 -0.2
v -0.1 0.6 0.1
v -0.1 0.6 -0.2
v 0 0.6 0
v 0 0.6 -0.1
v 0 0.7 0
v 0 0.7 -0.1
v 0 0.8 0
v 0 0.8 -0.1
v 0.2 0 0.3
v 0.2 0 0.2
v 0.2 0.1 0.3
v 0.2 0.1 0.2
v 0.2 0.2 0.3
v 0.2 0.2 0.2
v 0.2 0.3 0.3
v 0.2 0.3 0.2
v -0.1 0 0.3
v -0.1 0 0.2
v -0.1 0.1 0.3
v -0.1 0.1 0.2
v -0.1 0.2 0.3
v -0.1 0.2 0.2
v -0.1 0.3 0.3
v -0.1 0.3 0.2
v 0.1 0.6 0
v 0.1 0.6 -0.1
v 0.1 0.7 0
v 0.1 0.7 -0.1
v 0.1 0.8 0
v 0.1 0.8 -0.1
v 0.2 0.5 0.1
v 0.2 0.5 -0.2
v 0.2 0.6 0.1
v 0.2 0.6 -0.2
v 0.4 0 0.3
v 0.4 0 0.2
v 0.4 0 0.1
v 0.4 0 0
v 0.4 0 -0.1
v 0.4 0 -0.2
v 0.4 0 -0.3
v 0.4 0 -0.4
v 0.4 0.1 0.2
v 0.4 0.1 0.1
v 0.4 0.1 0
v 0.4 0.1 -0.1
v 0.4 0.1 -0.2
v 0.4 0.1 -0.3
v 0.4 0.2 0.2
v 0.4 0.2 0.1
v 0.4 0.2 0
v 0.4 0.2 -0.1
v 0.4 0.2 -0.2
v 0.4 0.2 -0.3
v 0.4 0.3 0.2
v 0.4 0.3 0.1
v 0.4 0.3 0
v 0.4 0.3 -0.1
v 0.4 0.3 -0.2
v 0.4 0.3 -0.3
v 0.4 0.4 0.1
v 0.4 0.4 0
v 0.4 0.4 -0.1
v 0.4 0.4 -0.2
v 0.4 0.5 0.3
v 0.4 0.5 -0.4
v -0.3 0 0.3
v -0.3 0.5 0.3
v -0.2 0.1 0.3
v -0.2 0.2 0.3
v -0.2 0.3 0.3
v -0.2 0.4 0.3
v -0.1 0 0.3
v -0.1 0.1 0.3
v -0.1 0.2 0.3
v -0.1 0.3 0.3
v -0.1 0.4 0.3
v 0 0.3 0.3
v 0 0.4 0.3
v 0.1 0.3 0.3
v 0.1 0.4 0.3
v 0.2 0 0.3
v 0.2 0.1 0.3
v 0.2 0.2 0.3
v 0.2 0.3 0.3
v 0.2 0.4 0.3
v 0.3 0.1 0.3
v 0.3 0.2 0.3
v 0.3 0.3 0.3
v 0.3 0.4 0.3
v 0.4 0 0.3
v 0.4 0.5 0.3
v -0.1 0 0.2
v -0.1 0.1 0.2
v -0.1 0.2 0.2
v -0.1 0.3 0.2
v 0 0.3 0.2
v 0.1 0.3 0.2
v 0.2 0 0.2
v 0.2 0.1 0.2
v 0.2 0.2 0.2
v 0.2 0.3 0.2
v -0.1 0.5 0.1
v -0.1 0.6 0.1
v 0.2 0.5 0.1
v 0.2 0.6 0.1
v 0 0.6 0
v 0 0.7 0
v 0 0.8 0
v 0.1 0.6 0
v 0.1 0.7 0
v 0.1 0.8 0
v 0 0.6 -0.1
v 0 0.7 -0.1
v 0 0.8 -0.1
v 0.1 0.6 -0.1
v 0.1 0.7 -0.1
v 0.1 0.8 -0.1
v -0.1 0.5 -0.2
v -0.1 0.6 -0.2
v 0.2 0.5 -0.2
v 0.2 0.6 -0.2
v -0.3 0 -0.4
v -0.3 0.5 -0.4
v -0.2 0.1 -0.4
v -0.2 0.2 -0.4
v -0.2 0.3 -0.4
v -0.2 0.4 -0.4
v -0.1 0 -0.4
v -0.1 0.1 -0.4
v -0.1 0.2 -0.4
v -0.1 0.3 -0.4
v -0.1 0.4 -0.4
v 0 0 -0.4
v 0 0.1 -0.4
v 0 0.2 -0.4
v 0 0.3 -0.4
v 0 0.4 -0.4
v 0.1 0 -0.4
v 0.1 0.1 -0.4
v 0.1 0.2 -0.4
v 0.1 0.3 -0.4
v 0.1 0.4 -0.4
v 0.2 0 -0.4
v 0.2 0.1 -0.4
v 0.2 0.2 -0.4
v 0.2 0.3 -0.4
v 0.2 0.4 -0.4
v 0.3 0.1 -0.4
v 0.3 0.2 -0.4
v 0.3 0.3 -0.4
v 0.3 0.4 -0.4
v 0.4 0 -0.4
v 0.4 0.5 -0.4
v -0.3 0 0.3
v -0.1 0 0.3
v 0.2 0 0.3
v 0.4 0 0.3
v -0.3 0 0.2
v -0.2 0 0.2
v -0.1 0 0.2
v 0.2 0 0.2
v 0.3 0 0.2
v 0.4 0 0.2
v -0.3 0 0.1
v -0.2 0 0.1
v -0.1 0 0.1
v 0.2 0 0.1
v 0.3 0 0.1
v 0.4 0 0.1
v -0.3 0 0
v -0.2 0 0
v 0.3 0 0
v 0.4 0 0
v -0.3 0 -0.1
v -0.2 0 -0.1
v 0.3 0 -0.1
v 0.4 0 -0.1
v -0.3 0 -0.2
v -0.2 0 -0.2
v 0.3 0 -0.2
v 0.4 0 -0.2
v -0.3 0 -0.3
v -0.2 0 -0.3
v -0.1 0 -0.3
v 0 0 -0.3
v 0.1 0 -0.3
v 0.2 0 -0.3
v 0.3 0 -0.3
v 0.4 0 -0.3
v -0.3 0 -0.4
v -0.1 0 -0.4
v 0 0 -0.4
v 0.1 0 -0.4
v 0.2 0 -0.4
v 0.4 0 -0.4
v -0.1 0.3 0.3
v 0 0.3 0.3
v 0.1 0.3 0.3
v 0.2 0.3 0.3
v -0.1 0.3 0.2
v 0 0.3 0.2
v 0.1 0.3 0.2
v 0.2 0.3 0.2
v -0.3 0.5 0.3
v 0.4 0.5 0.3
v -0.1 0.5 0.1
v 0.2 0.5 0.1
v -0.1 0.5 -0.2
v 0.2 0.5 -0.2
v -0.3 0.5 -0.4
v 0.4 0.5 -0.4
v -0.1 0.6 0.1
v 0.2 0.6 0.1
v 0 0.6 0
v 0.1 0.6 0
v 0 0.6 -0.1
v 0.1 0.6 -0.1
v -0.1 0.6 -0.2
v 0.2 0.6 -0.2
v 0 0.8 0
v 0.1 0.8 0
v 0 0.8 -0.1
v 0.1 0.8 -0.1

# faces
f 9/1/1 2/1/1 1/1/1
f 9/2/1 3/2/1 2/2/1
f 10/1/1 4/1/1 3/1/1
f 10/2/1 3/2/1 9/2/1
f 11/2/1 5/2/1 4/2/1
f 11/1/1 4/1/1 10/1/1
f 12/1/1 6/1/1 5/1/1
f 12/2/1 5/2/1 11/2/1
f 13/2/1 7/2/1 6/2/1
f 13/1/1 6/1/1 12/1/1
f 14/1/1 8/1/1 7/1/1
f 14/2/1 7/2/1 13/2/1
f 15/1/1 9/1/1 1/1/1
f 15/1/1 10/1/1 9/1/1
f 16/2/1 11/2/1 10/2/1
f 16/1/1 10/1/1 15/1/1
f 17/1/1 12/1/1 11/1/1
f 17/2/1 11/2/1 16/2/1
f 18/2/1 13/2/1 12/2/1
f 18/1/1 12/1/1 17/1/1
f 19/1/1 14/1/1 13/1/1
f 19/2/1 13/2/1 18/2/1
f 20/1/1 8/1/1 14/1/1
f 20/1/1 14/1/1 19/1/1
f 21/2/1 16/2/1 15/2/1
f 21/1/1 15/1/1 1/1/1
f 22/1/1 17/1/1 16/1/1
f 22/2/1 16/2/1 21/2/1
f 23/2/1 18/2/1 17/2/1
f 23/1/1 17/1/1 22/1/1
f 24/1/1 19/1/1 18/1/1
f 24/2/1 18/2/1 23/2/1
f 25/2/1 20/2/1 19/2/1
f 25/1/1 19/1/1 24/1/1
f 26/1/1 8/1/1 20/1/1
f 26/2/1 20/2/1 25/2/1
f 27/2/1 23/2/1 22/2/1
f 27/1/1 22/1/1 21/1/1
f 28/1/1 24/1/1 23/1/1
f 28/2/1 23/2/1 27/2/1
f 29/2/1 25/2/1 24/2/1
f 29/1/1 24/1/1 28/1/1
f 30/1/1 26/1/1 25/1/1
f 30/2/1 25/2/1 29/2/1
f 31/1/1 21/1/1 1/1/1
f 31/1/1 28/1/1 27/1/1
f 31/1/1 30/1/1 29/1/1
f 31/1/1 27/1/1 21/1/1
f 31/1/1 29/1/1 28/1/1
f 32/1/1 26/1/1 30/1/1
f 32/1/1 30/1/1 31/1/1
f 32/1/1 8/1/1 26/1/1
f 35/1/1 34/1/1 33/1/1
f 36/1/1 34/1/1 35/1/1
f 39/2/1 38/2/1 37/2/1
f 40/2/1 38/2/1 39/2/1
f 41/3/1 40/3/1 39/3/1
f 42/3/1 40/3/1 41/3/1
f 45/1/1 44/1/1 43/1/1
f 46/1/1 44/1/1 45/1/1
f 47/2/1 46/2/1 45/2/1
f 48/2/1 46/2/1 47/2/1
f 49/1/1 48/1/1 47/1/1
f 50/1/1 48/1/1 49/1/1
f 51/1/2 52/1/2 53/1/2
f 53/1/2 52/1/2 54/1/2
f 53/2/2 54/2/2 55/2/2
f 55/2/2 54/2/2 56/2/2
f 55/1/2 56/1/2 57/1/2
f 57/1/2 56/1/2 58/1/2
f 59/2/2 60/2/2 61/2/2
f 61/2/2 60/2/2 62/2/2
f 61/3/2 62/3/2 63/3/2
f 63/3/2 62/3/2 64/3/2
f 65/1/2 66/1/2 67/1/2
f 67/1/2 66/1/2 68/1/2
f 69/1/2 70/1/2 77/1/2
f 70/2/2 71/2/2 77/2/2
f 71/1/2 72/1/2 78/1/2
f 77/2/2 71/2/2 78/2/2
f 72/2/2 73/2/2 79/2/2
f 78/1/2 72/1/2 79/1/2
f 73/1/2 74/1/2 80/1/2
f 79/2/2 73/2/2 80/2/2
f 74/2/2 75/2/2 81/2/2
f 80/1/2 74/1/2 81/1/2
f 75/1/2 76/1/2 82/1/2
f 81/2/2 75/2/2 82/2/2
f 69/1/2 77/1/2 83/1/2
f 77/1/2 78/1/2 83/1/2
f 78/2/2 79/2/2 84/2/2
f 83/1/2 78/1/2 84/1/2
f 79/1/2 80/1/2 85/1/2
f 84/2/2 79/2/2 85/2/2
f 80/2/2 81/2/2 86/2/2
f 85/1/2 80/1/2 86/1/2
f 81/1/2 82/1/2 87/1/2
f 86/2/2 81/2/2 87/2/2
f 82/1/2 76/1/2 88/1/2
f 87/1/2 82/1/2 88/1/2
f 83/2/2 84/2/2 89/2/2
f 69/1/2 83/1/2 89/1/2
f 84/1/2 85/1/2 90/1/2
f 89/2/2 84/2/2 90/2/2
f 85/2/2 86/2/2 91/2/2
f 90/1/2 85/1/2 91/1/2
f 86/1/2 87/1/2 92/1/2
f 91/2/2 86/2/2 92/2/2
f 87/2/2 88/2/2 93/2/2
f 92/1/2 87/1/2 93/1/2
f 88/1/2 76/1/2 94/1/2
f 93/2/2 88/2/2 94/2/2
f 90/2/2 91/2/2 95/2/2
f 89/1/2 90/1/2 95/1/2
f 91/1/2 92/1/2 96/1/2
f 95/2/2 91/2/2 96/2/2
f 92/2/2 93/2/2 97/2/2
f 96/1/2 92/1/2 97/1/2
f 93/1/2 94/1/2 98/1/2
f 97/2/2 93/2/2 98/2/2
f 69/1/2 89/1/2 99/1/2
f 95/1/2 96/1/2 99/1/2
f 97/1/2 98/1/2 99/1/2
f 89/1/2 95/1/2 99/1/2
f 96/1/2 97/1/2 99/1/2
f 98/1/2 94/1/2 100/1/2
f 99/1/2 98/1/2 100/1/2
f 94/1/2 76/1/2 100/1/2
f 103/1/3 102/1/3 101/1/3
f 104/1/3 102/1/3 103/1/3
f 105/1/3 102/1/3 104/1/3
f 106/1/3 102/1/3 105/1/3
f 107/1/3 103/1/3 101/1/3
f 108/2/3 104/2/3 103/2/3
f 108/1/3 103/1/3 107/1/3
f 109/1/3 105/1/3 104/1/3
f 109/2/3 104/2/3 108/2/3
f 110/2/3 106/2/3 105/2/3
f 110/1/3 105/1/3 109/1/3
f 111/1/3 102/1/3 106/1/3
f 111/2/3 106/2/3 110/2/3
f 112/1/3 111/1/3 110/1/3
f 113/1/3 102/1/3 111/1/3
f 113/1/3 111/1/3 112/1/3
f 114/2/3 113/2/3 112/2/3
f 115/1/3 102/1/3 113/1/3
f 115/2/3 113/2/3 114/2/3
f 119/1/3 115/1/3 114/1/3
f 120/1/3 102/1/3 115/1/3
f 120/1/3 115/1/3 119/1/3
f 121/2/3 118/2/3 117/2/3
f 121/1/3 117/1/3 116/1/3
f 122/1/3 119/1/3 118/1/3
f 122/2/3 118/2/3 121/2/3
f 123/2/3 120/2/3 119/2/3
f 123/1/3 119/1/3 122/1/3
f 124/1/3 102/1/3 120/1/3
f 124/2/3 120/2/3 123/2/3
f 125/1/3 123/1/3 122/1/3
f 125/1/3 121/1/3 116/1/3
f 125/1/3 124/1/3 123/1/3
f 125/1/3 122/1/3 121/1/3
f 126/1/3 102/1/3 124/1/3
f 126/1/3 124/1/3 125/1/3
f 131/3/3 128/3/3 127/3/3
f 131/3/3 130/3/3 129/3/3
f 131/3/3 129/3/3 128/3/3
f 132/3/3 131/3/3 127/3/3
f 133/3/3 132/3/3 127/3/3
f 134/3/3 132/3/3 133/3/3
f 135/3/3 132/3/3 134/3/3
f 136/3/3 132/3/3 135/3/3
f 139/1/3 138/1/3 137/1/3
f 140/1/3 138/1/3 139/1/3
f 144/2/3 142/2/3 141/2/3
f 145/3/3 143/3/3 142/3/3
f 145/2/3 142/2/3 144/2/3
f 146/3/3 143/3/3 145/3/3
f 147/2/4 148/2/4 150/2/4
f 148/3/4 149/3/4 151/3/4
f 150/2/4 148/2/4 151/2/4
f 151/3/4 149/3/4 152/3/4
f 153/1/4 154/1/4 155/1/4
f 155/1/4 154/1/4 156/1/4
f 157/1/4 158/1/4 159/1/4
f 159/1/4 158/1/4 160/1/4
f 160/1/4 158/1/4 161/1/4
f 161/1/4 158/1/4 162/1/4
f 157/1/4 159/1/4 163/1/4
f 159/2/4 160/2/4 164/2/4
f 163/1/4 159/1/4 164/1/4
f 160/1/4 161/1/4 165/1/4
f 164/2/4 160/2/4 165/2/4
f 161/2/4 162/2/4 166/2/4
f 165/1/4 161/1/4 166/1/4
f 162/1/4 158/1/4 167/1/4
f 166/2/4 162/2/4 167/2/4
f 163/2/4 164/2/4 168/2/4
f 164/1/4 165/1/4 169/1/4
f 168/2/4 164/2/4 169/2/4
f 165/2/4 166/2/4 170/2/4
f 169/1/4 165/1/4 170/1/4
f 166/1/4 167/1/4 171/1/4
f 170/2/4 166/2/4 171/2/4
f 167/1/4 158/1/4 172/1/4
f 171/1/4 167/1/4 172/1/4
f 168/1/4 169/1/4 173/1/4
f 169/2/4 170/2/4 174/2/4
f 173/1/4 169/1/4 174/1/4
f 170/1/4 171/1/4 175/1/4
f 174/2/4 170/2/4 175/2/4
f 171/2/4 172/2/4 176/2/4
f 175/1/4 171/1/4 176/1/4
f 172/1/4 158/1/4 177/1/4
f 176/2/4 172/2/4 177/2/4
f 173/2/4 174/2/4 178/2/4
f 174/1/4 175/1/4 179/1/4
f 178/2/4 174/2/4 179/2/4
f 175/2/4 176/2/4 180/2/4
f 179/1/4 175/1/4 180/1/4
f 176/1/4 177/1/4 181/1/4
f 180/2/4 176/2/4 181/2/4
f 177/1/4 158/1/4 182/1/4
f 181/1/4 177/1/4 182/1/4
f 178/1/4 179/1/4 183/1/4
f 179/2/4 180/2/4 183/2/4
f 180/1/4 181/1/4 184/1/4
f 183/2/4 180/2/4 184/2/4
f 181/2/4 182/2/4 185/2/4
f 184/1/4 181/1/4 185/1/4
f 182/1/4 158/1/4 186/1/4
f 185/2/4 182/2/4 186/2/4
f 184/1/4 185/1/4 187/1/4
f 178/1/4 183/1/4 187/1/4
f 185/1/4 186/1/4 187/1/4
f 183/1/4 184/1/4 187/1/4
f 186/1/4 158/1/4 188/1/4
f 187/1/4 186/1/4 188/1/4
f 193/1/5 190/1/5 189/1/5
f 194/1/5 190/1/5 193/1/5
f 195/1/5 190/1/5 194/1/5
f 196/1/5 192/1/5 191/1/5
f 197/1/5 192/1/5 196/1/5
f 198/1/5 192/1/5 197/1/5
f 199/2/5 194/2/5 193/2/5
f 200/1/5 195/1/5 194/1/5
f 200/2/5 194/2/5 199/2/5
f 201/3/5 196/3/5 195/3/5
f 201/1/5 195/1/5 200/1/5
f 202/1/5 197/1/5 196/1/5
f 202/3/5 196/3/5 201/3/5
f 203/2/5 198/2/5 197/2/5
f 203/1/5 197/1/5 202/1/5
f 204/2/5 198/2/5 203/2/5
f 205/1/5 200/1/5 199/1/5
f 205/1/5 201/1/5 200/1/5
f 205/1/5 204/1/5 203/1/5
f 205/1/5 203/1/5 202/1/5
f 205/1/5 202/1/5 201/1/5
f 206/1/5 204/1/5 205/1/5
f 207/1/5 204/1/5 206/1/5
f 208/1/5 204/1/5 207/1/5
f 209/2/5 206/2/5 205/2/5
f 210/1/5 207/1/5 206/1/5
f 210/2/5 206/2/5 209/2/5
f 211/2/5 208/2/5 207/2/5
f 211/1/5 207/1/5 210/1/5
f 212/2/5 208/2/5 211/2/5
f 213/1/5 210/1/5 209/1/5
f 213/1/5 211/1/5 210/1/5
f 213/1/5 212/1/5 211/1/5
f 214/1/5 212/1/5 213/1/5
f 215/1/5 212/1/5 214/1/5
f 216/1/5 212/1/5 215/1/5
f 217/2/5 214/2/5 213/2/5
f 218/1/5 215/1/5 214/1/5
f 218/2/5 214/2/5 217/2/5
f 219/1/5 215/1/5 218/1/5
f 220/1/5 215/1/5 219/1/5
f 221/1/5 215/1/5 220/1/5
f 222/1/5 215/1/5 221/1/5
f 223/2/5 216/2/5 215/2/5
f 223/1/5 215/1/5 222/1/5
f 224/2/5 216/2/5 223/2/5
f 225/1/5 218/1/5 217/1/5
f 225/1/5 219/1/5 218/1/5
f 226/2/5 220/2/5 219/2/5
f 226/1/5 219/1/5 225/1/5
f 227/1/5 221/1/5 220/1/5
f 227/2/5 220/2/5 226/2/5
f 228/2/5 222/2/5 221/2/5
f 228/1/5 221/1/5 227/1/5
f 229/1/5 224/1/5 223/1/5
f 229/2/5 222/2/5 228/2/5
f 229/1/5 223/1/5 222/1/5
f 230/1/5 224/1/5 229/1/5
f 235/1/5 232/1/5 231/1/5
f 236/2/5 233/2/5 232/2/5
f 236/1/5 232/1/5 235/1/5
f 237/1/5 234/1/5 233/1/5
f 237/2/5 233/2/5 236/2/5
f 238/1/5 234/1/5 237/1/5
f 239/1/6 240/1/6 241/1/6
f 241/1/6 240/1/6 242/1/6
f 239/1/6 241/1/6 243/1/6
f 242/1/6 240/1/6 244/1/6
f 239/1/6 243/1/6 245/1/6
f 243/1/6 244/1/6 245/1/6
f 244/1/6 240/1/6 246/1/6
f 245/1/6 244/1/6 246/1/6
f 247/1/6 248/1/6 249/1/6
f 249/1/6 248/1/6 250/1/6
f 247/1/6 249/1/6 251/1/6
f 250/1/6 248/1/6 252/1/6
f 247/1/6 251/1/6 253/1/6
f 251/1/6 252/1/6 253/1/6
f 252/1/6 248/1/6 254/1/6
f 253/1/6 252/1/6 254/1/6
f 255/3/6 256/3/6 257/3/6
f 257/3/6 256/3/6 258/3/6
