# MagicaVoxel @ Ephtracy

# group
o 

# material
mtllib mine.mtl
usemtl palette

# normals
vn -1 0 0
vn 1 0 0
vn 0 0 1
vn 0 0 -1
vn 0 -1 0
vn 0 1 0

# texcoords
vt 0.396484 0.5
vt 0.880859 0.5
vt 0.955078 0.5
vt 0.962891 0.5
vt 0.982422 0.5

# verts
v -0.3 0 0.3
v -0.3 0 -0.2
v -0.3 0.1 -0.2
v -0.3 0.1 -0.3
v -0.3 1.2 0.3
v -0.3 1.2 0.2
v -0.3 1.2 -0.2
v -0.3 1.2 -0.3
v -0.3 1.3 0.3
v -0.3 1.3 0.2
v -0.3 1.3 -0.2
v -0.3 1.3 -0.3
v -0.3 1.4 0.3
v -0.3 1.4 -0.3
v -0.2 1.3 -0.3
v -0.2 1.3 -0.4
v -0.2 1.4 -0.3
v -0.2 1.5 -0.3
v -0.2 1.5 -0.4
v -0.2 1.6 -0.3
v -0.2 1.6 -0.4
v -0.1 0 -0.2
v -0.1 0 -0.3
v -0.1 0.1 -0.1
v -0.1 0.1 -0.2
v -0.1 0.1 -0.3
v -0.1 0.2 -0.1
v -0.1 0.2 -0.2
v -0.1 0.3 -0.1
v -0.1 0.3 -0.2
v -0.1 0.4 -0.1
v -0.1 0.4 -0.2
v -0.1 0.5 -0.1
v -0.1 0.5 -0.2
v -0.1 0.6 -0.1
v -0.1 0.6 -0.2
v -0.1 0.7 -0.1
v -0.1 0.7 -0.2
v -0.1 0.8 -0.1
v -0.1 0.8 -0.2
v -0.1 0.9 -0.1
v -0.1 0.9 -0.2
v -0.1 1 -0.1
v -0.1 1 -0.2
v -0.1 1.1 -0.1
v -0.1 1.1 -0.2
v -0.1 1.2 -0.1
v -0.1 1.2 -0.2
v -0.1 1.3 -0.1
v -0.1 1.3 -0.2
v -0.1 1.4 -0.1
v -0.1 1.4 -0.2
v 0.1 1.3 -0.3
v 0.1 1.3 -0.4
v 0.1 1.4 -0.3
v 0.1 1.5 -0.3
v 0.1 1.5 -0.4
v 0.2 0.1 0.2
v 0.2 0.1 -0.2
v 0.2 1.4 0.2
v 0.2 1.4 -0.2
v -0.2 0.1 0.2
v -0.2 0.1 -0.2
v -0.2 1.4 0.2
v -0.2 1.4 -0.2
v -0.1 1.3 -0.3
v -0.1 1.3 -0.4
v -0.1 1.4 -0.3
v -0.1 1.5 -0.3
v -0.1 1.5 -0.4
v -0.1 1.6 -0.3
v -0.1 1.6 -0.4
v 0 0.1 -0.1
v 0 0.1 -0.2
v 0 0.2 -0.1
v 0 0.2 -0.2
v 0 0.3 -0.1
v 0 0.3 -0.2
v 0 0.4 -0.1
v 0 0.4 -0.2
v 0 0.5 -0.1
v 0 0.5 -0.2
v 0 0.6 -0.1
v 0 0.6 -0.2
v 0 0.7 -0.1
v 0 0.7 -0.2
v 0 0.8 -0.1
v 0 0.8 -0.2
v 0 0.9 -0.1
v 0 0.9 -0.2
v 0 1 -0.1
v 0 1 -0.2
v 0 1.1 -0.1
v 0 1.1 -0.2
v 0 1.2 -0.1
v 0 1.2 -0.2
v 0 1.3 -0.1
v 0 1.3 -0.2
v 0 1.4 -0.1
v 0 1.4 -0.2
v 0.2 1.3 -0.3
v 0.2 1.3 -0.4
v 0.2 1.4 -0.3
v 0.2 1.5 -0.3
v 0.2 1.5 -0.4
v 0.3 0 0.3
v 0.3 0 -0.3
v 0.3 1.2 0.3
v 0.3 1.2 0.2
v 0.3 1.2 -0.2
v 0.3 1.2 -0.3
v 0.3 1.3 0.3
v 0.3 1.3 0.2
v 0.3 1.3 -0.2
v 0.3 1.3 -0.3
v 0.3 1.4 0.3
v 0.3 1.4 -0.3
v -0.3 0 0.3
v -0.3 1.2 0.3
v -0.3 1.3 0.3
v -0.3 1.4 0.3
v -0.2 1.2 0.3
v -0.2 1.3 0.3
v 0.2 1.2 0.3
v 0.2 1.3 0.3
v 0.3 0 0.3
v 0.3 1.2 0.3
v 0.3 1.3 0.3
v 0.3 1.4 0.3
v -0.1 0.1 -0.1
v -0.1 0.2 -0.1
v -0.1 0.3 -0.1
v -0.1 0.4 -0.1
v -0.1 0.5 -0.1
v -0.1 0.6 -0.1
v -0.1 0.7 -0.1
v -0.1 0.8 -0.1
v -0.1 0.9 -0.1
v -0.1 1 -0.1
v -0.1 1.1 -0.1
v -0.1 1.2 -0.1
v -0.1 1.3 -0.1
v -0.1 1.4 -0.1
v 0 0.1 -0.1
v 0 0.2 -0.1
v 0 0.3 -0.1
v 0 0.4 -0.1
v 0 0.5 -0.1
v 0 0.6 -0.1
v 0 0.7 -0.1
v 0 0.8 -0.1
v 0 0.9 -0.1
v 0 1 -0.1
v 0 1.1 -0.1
v 0 1.2 -0.1
v 0 1.3 -0.1
v 0 1.4 -0.1
v -0.2 0.1 -0.2
v -0.2 1.4 -0.2
v -0.1 0.1 -0.2
v -0.1 0.2 -0.2
v -0.1 0.3 -0.2
v -0.1 0.4 -0.2
v -0.1 0.5 -0.2
v -0.1 0.6 -0.2
v -0.1 0.7 -0.2
v -0.1 0.8 -0.2
v -0.1 0.9 -0.2
v -0.1 1 -0.2
v -0.1 1.1 -0.2
v -0.1 1.2 -0.2
v -0.1 1.3 -0.2
v -0.1 1.4 -0.2
v 0 0.1 -0.2
v 0 0.2 -0.2
v 0 0.3 -0.2
v 0 0.4 -0.2
v 0 0.5 -0.2
v 0 0.6 -0.2
v 0 0.7 -0.2
v 0 0.8 -0.2
v 0 0.9 -0.2
v 0 1 -0.2
v 0 1.1 -0.2
v 0 1.2 -0.2
v 0 1.3 -0.2
v 0 1.4 -0.2
v 0.2 0.1 -0.2
v 0.2 1.4 -0.2
v -0.2 1.4 -0.3
v -0.2 1.5 -0.3
v -0.2 1.6 -0.3
v -0.1 1.4 -0.3
v -0.1 1.5 -0.3
v -0.1 1.6 -0.3
v 0.1 1.4 -0.3
v 0.1 1.5 -0.3
v 0.2 1.4 -0.3
v 0.2 1.5 -0.3
v -0.2 0.1 0.2
v -0.2 1.4 0.2
v 0.2 0.1 0.2
v 0.2 1.4 0.2
v -0.3 0 -0.2
v -0.3 0.1 -0.2
v -0.2 0 -0.2
v -0.2 0.1 -0.2
v -0.1 0 -0.2
v -0.1 0.1 -0.2
v -0.3 0.1 -0.3
v -0.3 1.2 -0.3
v -0.3 1.3 -0.3
v -0.3 1.4 -0.3
v -0.2 1.2 -0.3
v -0.2 1.3 -0.3
v -0.2 1.4 -0.3
v -0.1 0 -0.3
v -0.1 0.1 -0.3
v -0.1 1.2 -0.3
v -0.1 1.3 -0.3
v -0.1 1.4 -0.3
v 0 1.2 -0.3
v 0 1.3 -0.3
v 0.1 1.3 -0.3
v 0.1 1.4 -0.3
v 0.2 1.2 -0.3
v 0.2 1.3 -0.3
v 0.2 1.4 -0.3
v 0.3 0 -0.3
v 0.3 1.2 -0.3
v 0.3 1.3 -0.3
v 0.3 1.4 -0.3
v -0.2 1.3 -0.4
v -0.2 1.5 -0.4
v -0.2 1.6 -0.4
v -0.1 1.3 -0.4
v -0.1 1.5 -0.4
v -0.1 1.6 -0.4
v 0.1 1.3 -0.4
v 0.1 1.5 -0.4
v 0.2 1.3 -0.4
v 0.2 1.5 -0.4
v -0.3 0 0.3
v 0.3 0 0.3
v -0.2 0 0.2
v 0.2 0 0.2
v -0.1 0 -0.1
v 0 0 -0.1
v -0.3 0 -0.2
v -0.2 0 -0.2
v -0.1 0 -0.2
v 0 0 -0.2
v 0.2 0 -0.2
v -0.1 0 -0.3
v 0.3 0 -0.3
v -0.3 0.1 -0.2
v -0.2 0.1 -0.2
v -0.1 0.1 -0.2
v -0.3 0.1 -0.3
v -0.1 0.1 -0.3
v -0.2 1.3 -0.3
v -0.1 1.3 -0.3
v 0.1 1.3 -0.3
v 0.2 1.3 -0.3
v -0.2 1.3 -0.4
v -0.1 1.3 -0.4
v 0.1 1.3 -0.4
v 0.2 1.3 -0.4
v -0.2 0.1 0.2
v 0.2 0.1 0.2
v -0.1 0.1 -0.1
v 0 0.1 -0.1
v -0.2 0.1 -0.2
v -0.1 0.1 -0.2
v 0 0.1 -0.2
v 0.2 0.1 -0.2
v -0.3 1.4 0.3
v 0.3 1.4 0.3
v -0.2 1.4 0.2
v 0.2 1.4 0.2
v -0.1 1.4 -0.1
v 0 1.4 -0.1
v -0.2 1.4 -0.2
v -0.1 1.4 -0.2
v 0 1.4 -0.2
v 0.2 1.4 -0.2
v -0.3 1.4 -0.3
v -0.2 1.4 -0.3
v -0.1 1.4 -0.3
v 0.1 1.4 -0.3
v 0.2 1.4 -0.3
v 0.3 1.4 -0.3
v 0.1 1.5 -0.3
v 0.2 1.5 -0.3
v 0.1 1.5 -0.4
v 0.2 1.5 -0.4
v -0.2 1.6 -0.3
v -0.1 1.6 -0.3
v -0.2 1.6 -0.4
v -0.1 1.6 -0.4

# faces
f 3/4/1 2/4/1 1/4/1
f 5/4/1 3/4/1 1/4/1
f 5/4/1 4/4/1 3/4/1
f 6/4/1 4/4/1 5/4/1
f 7/4/1 4/4/1 6/4/1
f 8/4/1 4/4/1 7/4/1
f 9/1/1 6/1/1 5/1/1
f 10/4/1 7/4/1 6/4/1
f 10/1/1 6/1/1 9/1/1
f 11/1/1 8/1/1 7/1/1
f 11/4/1 7/4/1 10/4/1
f 12/1/1 8/1/1 11/1/1
f 13/4/1 10/4/1 9/4/1
f 13/4/1 11/4/1 10/4/1
f 13/4/1 12/4/1 11/4/1
f 14/4/1 12/4/1 13/4/1
f 17/4/1 16/4/1 15/4/1
f 18/4/1 16/4/1 17/4/1
f 19/4/1 16/4/1 18/4/1
f 20/2/1 19/2/1 18/2/1
f 21/2/1 19/2/1 20/2/1
f 25/4/1 23/4/1 22/4/1
f 26/4/1 23/4/1 25/4/1
f 27/5/1 25/5/1 24/5/1
f 28/5/1 25/5/1 27/5/1
f 29/4/1 28/4/1 27/4/1
f 30/4/1 28/4/1 29/4/1
f 31/5/1 30/5/1 29/5/1
f 32/5/1 30/5/1 31/5/1
f 33/4/1 32/4/1 31/4/1
f 34/4/1 32/4/1 33/4/1
f 35/5/1 34/5/1 33/5/1
f 36/5/1 34/5/1 35/5/1
f 37/4/1 36/4/1 35/4/1
f 38/4/1 36/4/1 37/4/1
f 39/5/1 38/5/1 37/5/1
f 40/5/1 38/5/1 39/5/1
f 41/4/1 40/4/1 39/4/1
f 42/4/1 40/4/1 41/4/1
f 43/5/1 42/5/1 41/5/1
f 44/5/1 42/5/1 43/5/1
f 45/4/1 44/4/1 43/4/1
f 46/4/1 44/4/1 45/4/1
f 47/5/1 46/5/1 45/5/1
f 48/5/1 46/5/1 47/5/1
f 49/4/1 48/4/1 47/4/1
f 50/4/1 48/4/1 49/4/1
f 51/5/1 50/5/1 49/5/1
f 52/5/1 50/5/1 51/5/1
f 55/4/1 54/4/1 53/4/1
f 56/4/1 54/4/1 55/4/1
f 57/4/1 54/4/1 56/4/1
f 60/4/1 59/4/1 58/4/1
f 61/4/1 59/4/1 60/4/1
f 62/4/2 63/4/2 64/4/2
f 64/4/2 63/4/2 65/4/2
f 66/4/2 67/4/2 68/4/2
f 68/4/2 67/4/2 69/4/2
f 69/4/2 67/4/2 70/4/2
f 69/2/2 70/2/2 71/2/2
f 71/2/2 70/2/2 72/2/2
f 73/5/2 74/5/2 75/5/2
f 75/5/2 74/5/2 76/5/2
f 75/4/2 76/4/2 77/4/2
f 77/4/2 76/4/2 78/4/2
f 77/5/2 78/5/2 79/5/2
f 79/5/2 78/5/2 80/5/2
f 79/4/2 80/4/2 81/4/2
f 81/4/2 80/4/2 82/4/2
f 81/5/2 82/5/2 83/5/2
f 83/5/2 82/5/2 84/5/2
f 83/4/2 84/4/2 85/4/2
f 85/4/2 84/4/2 86/4/2
f 85/5/2 86/5/2 87/5/2
f 87/5/2 86/5/2 88/5/2
f 87/4/2 88/4/2 89/4/2
f 89/4/2 88/4/2 90/4/2
f 89/5/2 90/5/2 91/5/2
f 91/5/2 90/5/2 92/5/2
f 91/4/2 92/4/2 93/4/2
f 93/4/2 92/4/2 94/4/2
f 93/5/2 94/5/2 95/5/2
f 95/5/2 94/5/2 96/5/2
f 95/4/2 96/4/2 97/4/2
f 97/4/2 96/4/2 98/4/2
f 97/5/2 98/5/2 99/5/2
f 99/5/2 98/5/2 100/5/2
f 101/4/2 102/4/2 103/4/2
f 103/4/2 102/4/2 104/4/2
f 104/4/2 102/4/2 105/4/2
f 106/4/2 107/4/2 108/4/2
f 108/4/2 107/4/2 109/4/2
f 109/4/2 107/4/2 110/4/2
f 110/4/2 107/4/2 111/4/2
f 108/1/2 109/1/2 112/1/2
f 109/4/2 110/4/2 113/4/2
f 112/1/2 109/1/2 113/1/2
f 110/1/2 111/1/2 114/1/2
f 113/4/2 110/4/2 114/4/2
f 114/1/2 111/1/2 115/1/2
f 112/4/2 113/4/2 116/4/2
f 113/4/2 114/4/2 116/4/2
f 114/4/2 115/4/2 116/4/2
f 116/4/2 115/4/2 117/4/2
f 122/4/3 119/4/3 118/4/3
f 122/1/3 120/1/3 119/1/3
f 123/4/3 121/4/3 120/4/3
f 123/1/3 120/1/3 122/1/3
f 124/4/3 122/4/3 118/4/3
f 124/4/3 123/4/3 122/4/3
f 125/4/3 121/4/3 123/4/3
f 125/4/3 123/4/3 124/4/3
f 126/4/3 124/4/3 118/4/3
f 127/1/3 125/1/3 124/1/3
f 127/4/3 124/4/3 126/4/3
f 128/4/3 121/4/3 125/4/3
f 128/1/3 125/1/3 127/1/3
f 129/4/3 121/4/3 128/4/3
f 144/5/3 131/5/3 130/5/3
f 145/4/3 132/4/3 131/4/3
f 145/5/3 131/5/3 144/5/3
f 146/5/3 133/5/3 132/5/3
f 146/4/3 132/4/3 145/4/3
f 147/4/3 134/4/3 133/4/3
f 147/5/3 133/5/3 146/5/3
f 148/5/3 135/5/3 134/5/3
f 148/4/3 134/4/3 147/4/3
f 149/4/3 136/4/3 135/4/3
f 149/5/3 135/5/3 148/5/3
f 150/5/3 137/5/3 136/5/3
f 150/4/3 136/4/3 149/4/3
f 151/4/3 138/4/3 137/4/3
f 151/5/3 137/5/3 150/5/3
f 152/5/3 139/5/3 138/5/3
f 152/4/3 138/4/3 151/4/3
f 153/4/3 140/4/3 139/4/3
f 153/5/3 139/5/3 152/5/3
f 154/5/3 141/5/3 140/5/3
f 154/4/3 140/4/3 153/4/3
f 155/4/3 142/4/3 141/4/3
f 155/5/3 141/5/3 154/5/3
f 156/5/3 143/5/3 142/5/3
f 156/4/3 142/4/3 155/4/3
f 157/5/3 143/5/3 156/5/3
f 160/4/3 159/4/3 158/4/3
f 161/4/3 159/4/3 160/4/3
f 162/4/3 159/4/3 161/4/3
f 163/4/3 159/4/3 162/4/3
f 164/4/3 159/4/3 163/4/3
f 165/4/3 159/4/3 164/4/3
f 166/4/3 159/4/3 165/4/3
f 167/4/3 159/4/3 166/4/3
f 168/4/3 159/4/3 167/4/3
f 169/4/3 159/4/3 168/4/3
f 170/4/3 159/4/3 169/4/3
f 171/4/3 159/4/3 170/4/3
f 172/4/3 159/4/3 171/4/3
f 173/4/3 159/4/3 172/4/3
f 188/4/3 175/4/3 174/4/3
f 188/4/3 187/4/3 186/4/3
f 188/4/3 186/4/3 185/4/3
f 188/4/3 185/4/3 184/4/3
f 188/4/3 184/4/3 183/4/3
f 188/4/3 183/4/3 182/4/3
f 188/4/3 182/4/3 181/4/3
f 188/4/3 181/4/3 180/4/3
f 188/4/3 180/4/3 179/4/3
f 188/4/3 179/4/3 178/4/3
f 188/4/3 178/4/3 177/4/3
f 188/4/3 177/4/3 176/4/3
f 188/4/3 176/4/3 175/4/3
f 189/4/3 187/4/3 188/4/3
f 193/4/3 191/4/3 190/4/3
f 194/2/3 192/2/3 191/2/3
f 194/4/3 191/4/3 193/4/3
f 195/2/3 192/2/3 194/2/3
f 198/4/3 197/4/3 196/4/3
f 199/4/3 197/4/3 198/4/3
f 200/4/4 201/4/4 202/4/4
f 202/4/4 201/4/4 203/4/4
f 204/4/4 205/4/4 206/4/4
f 206/4/4 205/4/4 207/4/4
f 206/3/4 207/3/4 208/3/4
f 208/3/4 207/3/4 209/3/4
f 210/4/4 211/4/4 214/4/4
f 211/1/4 212/1/4 214/1/4
f 212/4/4 213/4/4 215/4/4
f 214/1/4 212/1/4 215/1/4
f 215/4/4 213/4/4 216/4/4
f 210/4/4 214/4/4 218/4/4
f 214/4/4 215/4/4 218/4/4
f 218/4/4 215/4/4 219/4/4
f 219/4/4 215/4/4 220/4/4
f 217/4/4 218/4/4 222/4/4
f 218/4/4 219/4/4 222/4/4
f 219/1/4 220/1/4 222/1/4
f 220/4/4 221/4/4 223/4/4
f 222/1/4 220/1/4 223/1/4
f 222/4/4 223/4/4 224/4/4
f 223/4/4 221/4/4 224/4/4
f 224/4/4 221/4/4 225/4/4
f 217/4/4 222/4/4 226/4/4
f 222/4/4 224/4/4 226/4/4
f 226/4/4 224/4/4 227/4/4
f 217/4/4 226/4/4 229/4/4
f 226/1/4 227/1/4 230/1/4
f 229/4/4 226/4/4 230/4/4
f 227/4/4 228/4/4 231/4/4
f 230/1/4 227/1/4 231/1/4
f 231/4/4 228/4/4 232/4/4
f 233/4/4 234/4/4 236/4/4
f 234/2/4 235/2/4 237/2/4
f 236/4/4 234/4/4 237/4/4
f 237/2/4 235/2/4 238/2/4
f 239/4/4 240/4/4 241/4/4
f 241/4/4 240/4/4 242/4/4
f 245/4/5 244/4/5 243/4/5
f 246/4/5 244/4/5 245/4/5
f 247/3/5 246/3/5 245/3/5
f 248/3/5 246/3/5 247/3/5
f 249/4/5 245/4/5 243/4/5
f 250/3/5 247/3/5 245/3/5
f 250/4/5 245/4/5 249/4/5
f 251/4/5 248/4/5 247/4/5
f 251/3/5 247/3/5 250/3/5
f 252/3/5 246/3/5 248/3/5
f 252/4/5 248/4/5 251/4/5
f 253/4/5 244/4/5 246/4/5
f 253/3/5 246/3/5 252/3/5
f 254/4/5 252/4/5 251/4/5
f 254/4/5 253/4/5 252/4/5
f 255/4/5 244/4/5 253/4/5
f 255/4/5 253/4/5 254/4/5
f 259/4/5 257/4/5 256/4/5
f 259/4/5 258/4/5 257/4/5
f 260/4/5 258/4/5 259/4/5
f 265/4/5 262/4/5 261/4/5
f 266/4/5 262/4/5 265/4/5
f 267/4/5 264/4/5 263/4/5
f 268/4/5 264/4/5 267/4/5
f 269/3/6 270/3/6 271/3/6
f 271/3/6 270/3/6 272/3/6
f 269/3/6 271/3/6 273/3/6
f 273/3/6 271/3/6 274/3/6
f 272/3/6 270/3/6 275/3/6
f 275/3/6 270/3/6 276/3/6
f 277/4/6 278/4/6 279/4/6
f 279/4/6 278/4/6 280/4/6
f 277/4/6 279/4/6 283/4/6
f 281/5/6 282/5/6 284/5/6
f 284/5/6 282/5/6 285/5/6
f 280/4/6 278/4/6 286/4/6
f 277/4/6 283/4/6 287/4/6
f 285/4/6 286/4/6 287/4/6
f 284/4/6 285/4/6 287/4/6
f 283/4/6 284/4/6 287/4/6
f 287/4/6 286/4/6 288/4/6
f 288/4/6 286/4/6 289/4/6
f 289/4/6 286/4/6 290/4/6
f 286/4/6 278/4/6 291/4/6
f 290/4/6 286/4/6 291/4/6
f 291/4/6 278/4/6 292/4/6
f 293/4/6 294/4/6 295/4/6
f 295/4/6 294/4/6 296/4/6
f 297/2/6 298/2/6 299/2/6
f 299/2/6 298/2/6 300/2/6
