# MagicaVoxel @ Ephtracy

# group
o 

# material
mtllib robot.mtl
usemtl palette

# normals
vn -1 0 0
vn 1 0 0
vn 0 0 1
vn 0 0 -1
vn 0 -1 0
vn 0 1 0

# texcoords
vt 0.880859 0.5
vt 0.962891 0.5

# verts
v -0.3 0 0.3
v -0.3 0 -0.4
v -0.3 0.7 0.3
v -0.3 0.7 -0.4
v -0.1 0.6 0.1
v -0.1 0.6 -0.2
v -0.1 0.7 0.1
v -0.1 0.7 -0.2
v 0 0.3 0.3
v 0 0.3 0.2
v 0 0.5 0.3
v 0 0.5 0.2
v 0.3 0.3 0.3
v 0.3 0.3 0.2
v 0.3 0.5 0.3
v 0.3 0.5 0.2
v 0.3 0.6 0.2
v 0.3 0.6 -0.3
v 0.3 0.7 0.2
v 0.3 0.7 -0.3
v -0.2 0.3 0.3
v -0.2 0.3 0.2
v -0.2 0.5 0.3
v -0.2 0.5 0.2
v -0.2 0.6 0.2
v -0.2 0.6 -0.3
v -0.2 0.7 0.2
v -0.2 0.7 -0.3
v 0.1 0.3 0.3
v 0.1 0.3 0.2
v 0.1 0.5 0.3
v 0.1 0.5 0.2
v 0.2 0.6 0.1
v 0.2 0.6 -0.2
v 0.2 0.7 0.1
v 0.2 0.7 -0.2
v 0.4 0 0.3
v 0.4 0 -0.4
v 0.4 0.7 0.3
v 0.4 0.7 -0.4
v -0.3 0 0.3
v -0.3 0.7 0.3
v -0.2 0.3 0.3
v -0.2 0.5 0.3
v 0 0.3 0.3
v 0 0.5 0.3
v 0.1 0.3 0.3
v 0.1 0.5 0.3
v 0.3 0.3 0.3
v 0.3 0.5 0.3
v 0.4 0 0.3
v 0.4 0.7 0.3
v -0.2 0.3 0.2
v -0.2 0.5 0.2
v 0 0.3 0.2
v 0 0.5 0.2
v 0.1 0.3 0.2
v 0.1 0.5 0.2
v 0.3 0.3 0.2
v 0.3 0.5 0.2
v -0.1 0.6 0.1
v -0.1 0.7 0.1
v 0.2 0.6 0.1
v 0.2 0.7 0.1
v -0.2 0.6 -0.3
v -0.2 0.7 -0.3
v 0.3 0.6 -0.3
v 0.3 0.7 -0.3
v -0.2 0.6 0.2
v -0.2 0.7 0.2
v 0.3 0.6 0.2
v 0.3 0.7 0.2
v -0.1 0.6 -0.2
v -0.1 0.7 -0.2
v 0.2 0.6 -0.2
v 0.2 0.7 -0.2
v -0.3 0 -0.4
v -0.3 0.7 -0.4
v 0.4 0 -0.4
v 0.4 0.7 -0.4
v -0.3 0 0.3
v 0.4 0 0.3
v -0.3 0 -0.4
v 0.4 0 -0.4
v -0.2 0.5 0.3
v 0 0.5 0.3
v 0.1 0.5 0.3
v 0.3 0.5 0.3
v -0.2 0.5 0.2
v 0 0.5 0.2
v 0.1 0.5 0.2
v 0.3 0.5 0.2
v -0.2 0.3 0.3
v 0 0.3 0.3
v 0.1 0.3 0.3
v 0.3 0.3 0.3
v -0.2 0.3 0.2
v 0 0.3 0.2
v 0.1 0.3 0.2
v 0.3 0.3 0.2
v -0.2 0.6 0.2
v 0.3 0.6 0.2
v -0.1 0.6 0.1
v 0.2 0.6 0.1
v -0.1 0.6 -0.2
v 0.2 0.6 -0.2
v -0.2 0.6 -0.3
v 0.3 0.6 -0.3
v -0.3 0.7 0.3
v 0.4 0.7 0.3
v -0.2 0.7 0.2
v 0.3 0.7 0.2
v -0.1 0.7 0.1
v 0.2 0.7 0.1
v -0.1 0.7 -0.2
v 0.2 0.7 -0.2
v -0.2 0.7 -0.3
v 0.3 0.7 -0.3
v -0.3 0.7 -0.4
v 0.4 0.7 -0.4

# faces
f 3/2/1 2/2/1 1/2/1
f 4/2/1 2/2/1 3/2/1
f 7/2/1 6/2/1 5/2/1
f 8/2/1 6/2/1 7/2/1
f 11/2/1 10/2/1 9/2/1
f 12/2/1 10/2/1 11/2/1
f 15/2/1 14/2/1 13/2/1
f 16/2/1 14/2/1 15/2/1
f 19/2/1 18/2/1 17/2/1
f 20/2/1 18/2/1 19/2/1
f 21/2/2 22/2/2 23/2/2
f 23/2/2 22/2/2 24/2/2
f 25/2/2 26/2/2 27/2/2
f 27/2/2 26/2/2 28/2/2
f 29/2/2 30/2/2 31/2/2
f 31/2/2 30/2/2 32/2/2
f 33/2/2 34/2/2 35/2/2
f 35/2/2 34/2/2 36/2/2
f 37/2/2 38/2/2 39/2/2
f 39/2/2 38/2/2 40/2/2
f 43/2/3 42/2/3 41/2/3
f 44/2/3 42/2/3 43/2/3
f 45/2/3 43/2/3 41/2/3
f 46/2/3 42/2/3 44/2/3
f 47/2/3 45/2/3 41/2/3
f 47/2/3 46/2/3 45/2/3
f 48/2/3 42/2/3 46/2/3
f 48/2/3 46/2/3 47/2/3
f 49/2/3 47/2/3 41/2/3
f 50/2/3 42/2/3 48/2/3
f 51/2/3 49/2/3 41/2/3
f 51/2/3 50/2/3 49/2/3
f 52/2/3 42/2/3 50/2/3
f 52/2/3 50/2/3 51/2/3
f 55/1/3 54/1/3 53/1/3
f 56/1/3 54/1/3 55/1/3
f 59/1/3 58/1/3 57/1/3
f 60/1/3 58/1/3 59/1/3
f 63/2/3 62/2/3 61/2/3
f 64/2/3 62/2/3 63/2/3
f 67/2/3 66/2/3 65/2/3
f 68/2/3 66/2/3 67/2/3
f 69/2/4 70/2/4 71/2/4
f 71/2/4 70/2/4 72/2/4
f 73/2/4 74/2/4 75/2/4
f 75/2/4 74/2/4 76/2/4
f 77/2/4 78/2/4 79/2/4
f 79/2/4 78/2/4 80/2/4
f 83/2/5 82/2/5 81/2/5
f 84/2/5 82/2/5 83/2/5
f 89/2/5 86/2/5 85/2/5
f 90/2/5 86/2/5 89/2/5
f 91/2/5 88/2/5 87/2/5
f 92/2/5 88/2/5 91/2/5
f 93/2/6 94/2/6 97/2/6
f 97/2/6 94/2/6 98/2/6
f 95/2/6 96/2/6 99/2/6
f 99/2/6 96/2/6 100/2/6
f 101/2/6 102/2/6 103/2/6
f 103/2/6 102/2/6 104/2/6
f 101/2/6 103/2/6 105/2/6
f 104/2/6 102/2/6 106/2/6
f 101/2/6 105/2/6 107/2/6
f 105/2/6 106/2/6 107/2/6
f 106/2/6 102/2/6 108/2/6
f 107/2/6 106/2/6 108/2/6
f 109/2/6 110/2/6 111/2/6
f 111/2/6 110/2/6 112/2/6
f 113/2/6 114/2/6 115/2/6
f 115/2/6 114/2/6 116/2/6
f 109/2/6 111/2/6 117/2/6
f 112/2/6 110/2/6 118/2/6
f 109/2/6 117/2/6 119/2/6
f 117/2/6 118/2/6 119/2/6
f 118/2/6 110/2/6 120/2/6
f 119/2/6 118/2/6 120/2/6
